<?xml version="1.0" encoding="UTF-8" standalone="no"?>
<svg
   version="1.1"
   style="display:block"
   viewBox="0 0 1998 1998"
   width="999"
   height="999"
   preserveAspectRatio="none"
   id="svg118"
   sodipodi:docname="devil.svg"
   inkscape:version="1.4.2 (ebf0e94, 2025-05-08)"
   xml:space="preserve"
   xmlns:inkscape="http://www.inkscape.org/namespaces/inkscape"
   xmlns:sodipodi="http://sodipodi.sourceforge.net/DTD/sodipodi-0.dtd"
   xmlns:xlink="http://www.w3.org/1999/xlink"
   xmlns="http://www.w3.org/2000/svg"
   xmlns:svg="http://www.w3.org/2000/svg"><sodipodi:namedview
     id="namedview118"
     pagecolor="#ffffff"
     bordercolor="#000000"
     borderopacity="0.25"
     inkscape:showpageshadow="2"
     inkscape:pageopacity="0.0"
     inkscape:pagecheckerboard="true"
     inkscape:deskcolor="#d1d1d1"
     showgrid="false"
     inkscape:zoom="0.9474126"
     inkscape:cx="538.83598"
     inkscape:cy="315.59639"
     inkscape:window-width="2880"
     inkscape:window-height="1676"
     inkscape:window-x="-12"
     inkscape:window-y="-12"
     inkscape:window-maximized="1"
     inkscape:current-layer="g122" /><defs
     id="defs2"><linearGradient
       id="Gradient1"
       gradientUnits="userSpaceOnUse"
       x1="629.08301"
       y1="914.914"
       x2="622.96802"
       y2="918.10199"
       gradientTransform="matrix(1.0261587,0,0,1.243712,-532.57646,-570.86384)"><stop
         class="stop0"
         offset="0"
         stop-opacity="1"
         stop-color="rgb(60,103,144)"
         id="stop1" /><stop
         class="stop1"
         offset="1"
         stop-opacity="1"
         stop-color="rgb(79,126,170)"
         id="stop2" /></linearGradient></defs><g
     id="g122"
     transform="matrix(0.42338202,0.42338202,-0.42338202,0.42338202,875.03537,-144.04515)"
     style="stroke-width:3.34028"
     inkscape:label="bg"><path
       d="m 209.74304,493.84062 c 0,-318.9 258.5,-577.400002 577.4,-577.400002 H 2036.243 c 319,0 577.5,258.500002 577.5,577.400002 V 2321.4406 H 787.14304 c -318.9,0 -577.4,-258.5 -577.4,-577.4 z"
       fill="#74aa9c"
       id="path1"
       style="fill:#002147;fill-opacity:1;stroke-width:3.34028"
       sodipodi:nodetypes="sssscsss" /><g
       id="g127"
       transform="matrix(0.64344058,0,0,0.64344058,240.77899,-52.017172)"
       style="stroke-width:5.19128"><path
         id="a"
         d="M 1107.3,299.1 C 1225.0759,343.6572 733.4,426.4 672.1,614.4 L 650,743.5 v 427.9 c 0,21.4 11,40.4 29.4,51.4 l 344.5,198.515 V 833.3 h 0.1 V 805.4 L 1372.7,604 c 33.715,-19.52 70.44,-32.857 108.47,-39.828 L 1447.6,450.3 C 1361,353.5 543.5576,-240.06086 1107.3,299.1 Z m 0,117.5 -0.6,0.6 c 79.699,0 156.3,27.5 217.6,78.4 -2.5,1.2 -7.4,4.3 -11,6.1 L 952.8,709.3 c -18.4,10.4 -29.4,30 -29.4,51.4 V 1248 L 768.3,1158.6 V 755.8 c -0.1,-187.099 151.601,-338.9 339,-339.2 z"
         fill="#ffffff"
         style="opacity:0.293834;fill:#0077ff;fill-opacity:1;stroke-width:5.19128"
         sodipodi:nodetypes="cccsccccccccccccccscccc" /><use
         xlink:href="#a"
         transform="rotate(60,1203,1203)"
         id="use1"
         style="fill:#326fa2;fill-opacity:1;stroke-width:5.19128" /><use
         xlink:href="#a"
         transform="rotate(120,1203,1203)"
         id="use2"
         style="fill:#326fa2;fill-opacity:1;stroke-width:5.19128" /><use
         xlink:href="#a"
         transform="rotate(180,1203,1203)"
         id="use3"
         style="fill:#326fa2;fill-opacity:1;stroke-width:5.19128" /><use
         xlink:href="#a"
         transform="rotate(-120,1203,1203)"
         id="use4"
         style="fill:#326fa2;fill-opacity:1;stroke-width:5.19128" /><use
         xlink:href="#a"
         transform="rotate(-60,1203,1203)"
         id="use5"
         style="fill:none;fill-opacity:1;stroke-width:5.19128" /></g></g><g
     inkscape:groupmode="layer"
     id="layer2"
     inkscape:label="body"
     transform="translate(1563.7092,114.46258)"><g
       id="g118"
       transform="matrix(0.97450816,0,0,0.80404464,-1044.7092,344.53742)"
       style="display:block;stroke-width:1.1297"
       inkscape:label="devil"><path
         fill="#161d23"
         d="m 591.21481,0 c 0.275,8.812 0.45,26.705 2.972,34.493 12.159,37.549 14.254,46.8 -2.292,83.385 12.365,-2.595 27.403,-6.234 39.595,-8.259 -13.637,25.149 -21.101,38.56 -38.4,61.572 18.16,8.436 31.227,13.671 49.644,20.935 -13.001,9.541 -32.145,19.339 -46.526,27.028 11.919,11.915 21.686,21.143 34.187,32.413 l -44.765,20.415 c 4.548,9.54 8.598,17.006 13.757,26.136 -8.332,-0.136 -18.55,-0.424 -26.825,-1.68 1.881,8.259 3.794,17.668 5.95,25.766 -3.976,-1.599 -16.154,-7.294 -19.911,-5.551 -0.463,5.413 1.845,3.646 -0.116,8.773 l -1.881,0.854 -4.62,-3.166 c -5.966,2.831 -12.412,11.01 -20.922,15.451 0.332,7.877 0.714,15.054 1.443,22.901 4.361,-4.908 9.208,-10.812 15.427,-13.112 l 1.817,0.598 c 0.748,2.144 1.448,4.305 2.099,6.481 5.21,0.529 18.035,-5.224 23.65,-6.443 34.712,-7.534 70.461,-20.016 98.322,-42.845 52.497,-43.015 71.356,-121.684 67.79,-186.985 -0.815,-14.922 -6.338,-29.893 -3.36,-44.809 5.409,-28.035 11.182,-44.023 41.927,-51.003 -11.553,12.444 -14.086,15.6 -13.462,32.818 l 0.068,1.772 c 48.437,13.801 108.472,110.409 132.6,153.742 78.346,140.703 95.096,305.456 81.426,463.419 -5.07,58.47 -14.04,117.73 -30.171,174.21 -8.015,28.06 -18.011,55.9 -30.959,82.08 2.413,-62.12 -0.209,-139.57 -41.962,-189.65 -20.075,-24.08 -42.043,-18.67 -63.982,-2.01 -1.381,-11.36 -1.019,-23.6 -2.152,-35.18 -6.572,-67.13 -35.361,-156.473 -120.792,-109.49 0.507,-45.017 -13.324,-102.305 -67.032,-107.286 17.399,64.829 33.876,129.906 49.424,195.196 5.606,24.52 10.978,49.08 16.115,73.7 6.59,31.22 6.157,41.72 23.653,68.3 7.818,11.88 32.046,66.59 30.195,78.75 l -1.446,1.92 c -8.842,-0.93 -23.503,-37.05 -28.789,-46.08 2.567,11.64 9.913,53.44 3.724,63.4 -1.095,0.43 -2.179,1.21 -2.848,0.37 -9.301,-11.66 -12.185,-47.79 -15.621,-60.76 -0.142,15.01 0.944,48.75 -7.29,60.89 l -1.672,0.9 c -3.951,-2.88 -5.079,-10.26 -5.339,-15 -0.978,-17.84 -1.687,-35.27 -3.476,-53.08 -3.8,12.39 -7.933,28.98 -17.088,38.17 l -2.183,0.76 c -6.305,-7.74 8.091,-74.61 12.789,-85.57 -16.987,-70 -34.777,-139.8 -53.364,-209.39 -9.661,-35.125 -20.961,-70.935 -31.67,-105.796 l -8.748,2.984 c -0.844,61.19 -2.611,121.422 1.367,182.602 0.735,11.29 -5.648,22.89 -0.663,35.3 1.731,5.47 -9.739,27.63 -7.434,35.17 0.901,18.01 2.136,35.97 3.111,53.97 l 7.232,124.3 c 0.91,14.05 1.85,28.1 2.759,42.15 3.813,58.91 -1.636,118.01 -1.299,177.06 0.218,38.1 -2.33,76.39 -1.71,114.56 10.746,10.6 26.281,25.01 39.012,33.23 6.275,4.05 20.162,7.18 23.344,15.62 -1.893,4.44 -2.126,5.92 -6.957,7.55 l -0.042,0.48 c -0.161,1.66 0.049,1.39 -0.787,2.74 -4.104,-0.01 -5.681,-0.45 -9.695,-1.39 -0.213,1.74 -0.312,2.75 -0.331,4.5 -10.663,3.64 -62.062,-21.74 -72.703,-28.64 -4.248,2.56 -4.305,3.52 -8.586,3.58 -1.274,-1.75 -2.006,-2.72 -1.282,-5.13 8.152,-27.09 6.03,-57.23 5.608,-85.88 l -2.294,-111.49 -0.77,-65.46 c -0.087,-13.9 0.245,-27.87 -0.714,-41.76 -3.935,-56.93 -13.99,-115.22 -17.712,-171.97 -1.935,1.93 -7.905,7.78 -8.621,9.88 -6.861,20.15 -10.413,46.63 -15.391,67.59 -6.136,25.2 -13.305,50.14 -21.489,74.76 -3.425,10.59 -8.058,23.16 -11.258,33.52 -0.928,3.01 -1.705,22.82 -1.908,27.11 l -2.241,49.21 c -2.606,57.6 -5.161,114.72 -6.125,172.93 -0.625,37.71 14.322,54.18 -15.988,86.36 -1.421,1.51 -3.15,2.51 -5.059,3.32 -3.332,-0.24 -2.182,0.32 -4.354,-2.01 -0.656,-3.53 -0.648,-4.28 -0.527,-7.82 -3.147,3.15 -7.38,8.04 -11.343,9.53 -4.831,-1.61 -3.141,-6.35 -2.699,-10.98 -3.223,2.54 -8.115,6.91 -11.833,7.96 l -1.603,-0.59 c -1.898,-5.08 1.642,-7.59 -0.623,-8.81 -2.687,1.6 -5.159,3.52 -8.231,3.25 -5.585,-8.33 30.711,-51.29 31.52,-62.64 1.274,-17.85 -0.574,-40.06 -1.134,-57.77 -1.479,-38.8 -2.214,-77.62 -2.203,-116.45 -30.797,53.68 -70.309,111.28 -133.535,129.45 -38.661,11.1 -79.694,-2.24 -90.477,-44.83 -0.841,-3.37 -1.635,-6.76 -2.381,-10.16 -8.272,-3.45 -13.363,-4.83 -22.579,-5.43 4.56,-7.98 11.446,-18.65 12.975,-27.55 0.813,-4.73 -1.873,-12.83 0.014,-17.21 4.67,0.23 3.34,4.34 7.119,2.73 4.626,-13.38 11.888,-31.22 19.893,-42.99 1.116,9.46 1.153,44.42 4.205,48.67 1.165,-0.2 2.181,-0.38 3.34,-0.63 3.741,13.81 -2.197,16.82 7.399,36.92 -3.865,0.2 -11.441,-0.12 -14.109,3.02 -6.275,7.4 10.591,20.59 16.342,24.31 11.082,7.18 29.113,6.48 41.572,2.89 39.43,-10.27 74.136,-52.19 93.544,-85.4 25.245,-43.2 60.861,-153.99 59.5,-200.48 -3.422,2.23 -7.452,5.41 -11.374,5.66 -2.402,-1.48 -2.769,-1.89 -3.156,-5.18 -1.78,-7.99 -0.897,-38.65 -0.03,-47.6 1.688,-60.1 7.584,-119.86 8.003,-179.9 0.061,-8.72 6.634,-15.48 6.005,-24.57 4.925,-54.93 3.011,-103.515 0.857,-158.23 -5.243,-1.777 -10.51,-3.482 -15.8,-5.112 -15.877,45.242 -30.126,96.912 -42.471,143.372 -15.514,56.76 -29.957,113.81 -43.32,171.12 7.663,20.88 8.849,40.4 12.515,62.19 1.23,7.3 2.928,14.69 0.827,21.97 l -1.259,1.43 c -10.33,-1.9 -15.029,-31.95 -18.752,-35.24 -4.456,14.53 0.035,58.11 -8.947,64.78 -8.992,-4.54 -8.331,-32.29 -8.597,-42.08 -1.026,-4.13 -0.204,-5.18 -2.484,-9.61 -3.23,11.23 -6.917,46.07 -14.258,50.55 -10.865,-1.42 -1.035,-51.81 0.665,-61.26 -5.528,8.68 -20.927,41.59 -27.656,43.46 -1.256,-0.96 -2.6,-2.15 -2.351,-4.1 3.66,-28.81 21.607,-56.03 34.544,-81.74 3.797,-7.55 9.073,-14.43 11.216,-22.78 8.514,-33.21 14.575,-67.23 22.015,-100.7 10.404,-45.57 21.624,-90.95 33.657,-136.116 5.933,-22.829 12.269,-50.15 18.95,-72.393 -20.844,2.265 -37.421,6.876 -51.317,24.283 -17.419,21.819 -25.753,57.296 -24.215,84.736 -9.481,-4.45 -17.701,-8.63 -27.938,-11.12 -37.093,-9.02 -62.776,13.54 -77.127,45.17 -14.544,32.05 -18.991,64.9 -20.83,99.7 -0.211,3.99 -0.581,7.84 -1.227,11.8 -79.703003,-65.5 -125.305603,106.23 -122.486303,156.51 0.6174,11 -0.023,23.7 0.3715,35.06 -78.6643,-173.29 -67.9629,-455.883 -2.3224,-630.697 9.9322,-26.623 21.5602,-52.584 34.8112,-77.721 C 110.16081,183.979 181.60481,71.238 228.54181,59.442 c 3.19,-16.909 -0.343,-22.91 -12.032,-35.375 30.104,6.292 38.536,25.756 43.152,55.528 2.144,13.823 -7.758,36.542 -5.639,51.57 0.771,70.385 20.488,148.863 84.476,187.62 44.52,26.966 73.769,24.462 117.343,43.046 l 0.491,-14.983 c 4.272,2.598 13.48,9.723 16.271,10.413 4.95,-2.188 3.587,-13.249 3.697,-18.466 -8.273,-4.884 -17.589,-14.506 -20.481,-15.884 -1.976,0.867 -3.959,1.718 -5.949,2.552 l -1.009,-0.888 c -0.169,-3.509 -0.229,-7.023 -0.18,-10.537 -5.619,1.973 -14.151,5.208 -19.698,6.466 2.091,-8.13 4.979,-17.266 6.817,-25.117 -10.242,0.851 -17.892,1.04 -28.161,1.052 5.257,-8.817 9.403,-15.795 13.633,-25.245 -15.349,-8.834 -29.543,-13.973 -43.956,-21.678 11.691,-11.193 22.318,-19.985 33.752,-31.928 -14.443,-7.685 -34.573,-17.889 -47.534,-27.06 20.594,-6.208 31.463,-11.312 50.625,-20.945 -13.166,-16.259 -29.137,-42.223 -39.193,-61.073 l 40.41,7.231 c -17.539,-37.937 -13.343,-42.396 -1.917,-82.091 2.038,-7.08 3.246,-25.442 3.731,-33.057 20.662,33.009 7.652,36.523 15.548,69.339 2.099,8.723 15.377,25.987 21.316,33.908 -0.814,-35.188 1.93,-54.533 7.648,-89.223 19.805,20.411 41.693,46.765 54.562,72.035 11.519,-14.883 22.178,-24.242 35.875,-36.941 4.398,-4.077 8.509,-9.17 12.766,-13.216 2.056,15.205 3.766,30.455 5.127,45.738 17.911,-33.411 -2.926,-48.382 21.182,-82.233 z"
         id="path3"
         style="stroke-width:1.1297" /><path
         fill="#5a4a32"
         d="m 416.76081,910.669 c -1.78,-7.99 -0.897,-38.65 -0.03,-47.6 0.113,4.07 -0.363,13.46 1.89,16.25 -0.16,8.76 -0.558,22.75 0.536,31.2 -0.622,-1.64 -1.258,-4.65 -1.7,-6.46 z"
         id="path5"
         style="stroke-width:1.1297" /><path
         fill="#cfdae1"
         d="m 303.30781,873.189 c 0.36,-2.31 0.349,-4.32 1.848,-5.96 1.11,4.23 0.879,11.13 0.636,15.57 -1.026,-4.13 -0.204,-5.18 -2.484,-9.61 z"
         id="path6"
         style="stroke-width:1.1297" /><path
         fill="#326fa2"
         d="m 52.621107,911.839 c -7.407,-21.71 -13.9089,-53.76 -18.0679,-76.1 -19.6973,-107.02 -22.0733,-216.52 -7.037,-324.293 15.3354,-114.583 47.7586,-223.387 112.641603,-319.35 23.363,-34.555 41.291,-63.781 75.301,-89.747 -11.641,31.726 -27.316,62.646 -38.407,95.999 -29.886,89.871 -38.04,183.824 -36.016,277.826 1.213,6.191 1.012,8.499 0.694,14.647 -0.093,19.766 2.189,41.432 3.506,61.306 4.216,63.592 13.985,121.782 27.488,183.822 -21.888,-16.66 -47.464,-12.59 -65.646,6.91 -40.370003,43.28 -53.860803,111.63 -54.456703,168.98 z"
         id="path7"
         style="stroke-width:1.1297" /><path
         fill="#204061"
         d="m 141.03581,476.174 c 1.213,6.191 1.012,8.499 0.694,14.647 -0.931,-5.399 -0.755,-9.239 -0.694,-14.647 z"
         id="path8"
         style="stroke-width:1.1297" /><path
         fill="#326fa2"
         d="m 779.91581,101 c 28.716,19.981 46.509,47.299 65.649,75.25 128.844,188.147 142.704,430.829 98.595,648.659 -5.166,25.51 -12.005,57.1 -20.28,81.99 -1.359,-15.89 -0.941,-34.08 -2.919,-49.68 -5.282,-41.66 -15.364,-94 -48.138,-123.23 -17.78,-15.85 -34.845,-12.66 -53.656,-1.7 16.224,-64.05 25.193,-134.47 29.972,-200.403 1.191,-16.445 3.173,-39.22 2.951,-55.338 -0.397,-7.067 -0.3,-9.116 0.766,-16.113 1.029,-106.742 -8.781,-206.819 -50.192,-306.06 -6.932,-16.613 -14.676,-37.483 -22.748,-53.375 z"
         id="path9"
         style="stroke-width:1.1297" /><path
         fill="#204061"
         d="m 852.85581,460.435 c 0.047,6.099 0.187,10.04 -0.766,16.113 -0.397,-7.067 -0.3,-9.116 0.766,-16.113 z"
         id="path10"
         style="stroke-width:1.1297" /><path
         fill="#77b7e2"
         d="m 224.94681,62.343 2.801,0.262 c 14.924,19.044 21.323,6.976 27.547,7.975 1.989,3.169 2.808,10.972 2.109,14.407 -13.832,67.966 -0.666,147.696 42.2,203.389 20.934,27.198 61.109,46.985 93.755,56.68 20.35,6.044 43.535,8.35 62.692,19.695 -18.495,5.202 -30.702,7.621 -44.58,21.354 -35.372,-18.624 -70.697,-39.308 -105.366,-58.883 -36.136,-20.404 -43.815,-46.157 -54.211,-83.895 -6.527,-23.692 -12.306,-47.197 -18.004,-71.513 -17.815,82.393 -0.686,218.715 22.956,298.202 5,16.616 10.509,33.075 16.518,49.353 3.387,9.019 29.3,69.34 28.583,72.56 -6.193,-1.93 -29.889,-57.579 -33.438,-66.187 -50.224,-124.477 -65.667,-260.266 -44.677,-392.842 -43.087,59.086 -66.192,217.232 -69.499,289.404 -2.17,57.1 -0.565,114.281 4.806,171.165 2.505,27.61 5.645,55.16 9.419,82.62 2.555,17.46 8.701,48.68 8.481,65.46 -7.043,-21.91 -13.226,-58.7 -17.201,-81.9 -0.343,-7.87 -4.252,-30.75 -5.478,-40.55 -3.475,-27.14 -6.158,-54.377 -8.046,-81.676 -9.41,-136.1 -0.807,-270.173 55.115,-395.336 6.213,-13.906 12.992,-29.494 18.101,-43.734 -33.645,16.176 -66.109,69.812 -86.425,100.784 -28.739,43.816 -52.503003,91.516 -68.845003,141.348 -42.9872,131.08 -57.2592002,274.994 -44.0464,411.924 3.5143,34.26 8.7679,68.32 15.7404,102.04 2.0291,10 15.6294,59.13 15.3965,64.42 l -0.9715,-0.45 c -10.0066,-27.97 -18.0627,-47.87 -25.0446,-77.78 -38.6345,-165.47 -29.2106002,-380.543 30.665,-538.898 9.8386,-26.16 21.3256,-51.67 34.3906,-76.376 C 114.82881,179.706 177.24781,83.858 224.94681,62.343 Z"
         id="path11"
         style="stroke-width:1.1297" /><path
         fill="#77b7e2"
         d="m 551.81281,358.156 c 36.59,-11.938 62.045,-13.725 97.868,-33.404 71.293,-39.164 93.132,-117.503 95.205,-194.003 0.47,-17.327 -8.989,-43.164 -4.464,-58.884 6.094,-4.02 17.166,9.431 28.156,-11.395 17.445,5.881 27.203,15.497 39.934,28.047 2.394,1.848 3.172,2.312 4.786,4.943 12.964,13.061 29.878,35.677 40.666,50.658 40.104,55.689 69.03,112.059 90.622,177.345 20.493,63.483 32.963,129.282 37.113,195.862 7.62,110.464 -9.62,303.474 -59.691,403.074 34.355,-108.39 53.121,-255.59 46.031,-369.553 -3.63,-60.388 -13.667,-120.218 -29.949,-178.483 -7.599,-28.444 -17.037,-56.365 -28.254,-83.586 -23.004,-54.325 -83.825,-163.912 -134.988,-193.028 8.405,16.876 14.971,34.501 22.375,51.585 53.511,123.459 59.677,260.013 48.939,392.548 -5.287,65.267 -13.295,133.997 -30.975,198.007 -0.619,-17.83 5.501,-45.68 8.434,-64.45 3.347,-22.57 6.156,-45.21 8.425,-67.92 11.603,-111.014 13.016,-209.709 -8.719,-319.683 -11.867,-60.041 -20.699,-98.185 -49.382,-152.928 -0.054,13.61 2.456,34.255 3.435,48.599 1.465,22.906 2.096,45.859 1.889,68.811 -0.556,104.687 -17.274,200.933 -62.326,295.971 -3.031,6.394 -18.137,42.33 -23.293,42.07 -1.785,-5.96 6.645,-18.12 9.889,-25.762 15.49,-36.483 29.821,-73.902 39.766,-112.294 21.209,-81.879 34.415,-199.292 18.918,-282.442 -9.854,39.179 -20.013,108.174 -46.917,137.824 -5.807,6.368 -12.312,12.062 -19.393,16.975 -10.659,7.503 -27.197,16.078 -38.846,22.759 -22.157,12.71 -44.361,25.385 -67.196,36.822 -9.902,-5.222 -9.916,-9.023 -16.63,-13.215 -8.856,-5.53 -11.085,-2.289 -21.428,-10.87 z"
         id="path12"
         style="stroke-width:1.1297" /><path
         fill="#45618a"
         d="m 808.51181,88.517 c 2.394,1.848 3.172,2.312 4.786,4.943 -2.167,-1.408 -3.168,-2.939 -4.786,-4.943 z"
         id="path13"
         style="stroke-width:1.1297" /><path
         fill="#326fa2"
         d="m 218.85481,146.107 c -2.323,38.665 -5.754,73.289 -5.658,112.294 -0.106,115.986 28.576,230.185 83.474,332.358 -19.852,-8.55 -34.052,-12.59 -55.751,-5.72 -26.724,12.17 -38.603,31.31 -48.741,58.32 -1.717,4.57 -3.308,9.18 -4.772,13.84 -5.989,20.3 -8.271,39.09 -10.514,59.99 -1.704,-16.96 -5.846,-37.16 -8.043,-55.14 -5.93,-47.32 -9.926,-94.875 -11.978,-142.528 -1.481,-6.323 -1.012,-10.673 -0.758,-17.087 -0.206,-25.008 -0.709,-57.427 0.724,-81.777 4.559,-77.49 22.942,-207.611 62.017,-274.55 z"
         id="path14"
         style="stroke-width:1.1297" /><path
         fill="#77b7e2"
         d="m 187.40681,657.199 c -0.461,-1.04 -0.761,-2 -1.025,-3.11 -6.48,-27.22 -9.236,-166.228 5.137,-189.071 1.071,-1.702 1.369,-2.091 3.343,-2.554 4.407,4.652 14.035,38.578 16.569,47.018 8.108,27.004 19.513,49.959 29.489,75.557 -26.724,12.17 -38.603,31.31 -48.741,58.32 -1.717,4.57 -3.308,9.18 -4.772,13.84 z"
         id="path15"
         style="stroke-width:1.1297" /><path
         fill="#204061"
         d="m 156.11381,502.434 c 0.473,6.082 0.876,10.956 0.758,17.087 -1.481,-6.323 -1.012,-10.673 -0.758,-17.087 z"
         id="path16"
         style="stroke-width:1.1297" /><path
         fill="#326fa2"
         d="m 698.40881,588.499 c 78.883,-145.301 92.913,-282.74 78.421,-445.44 24.26,48.75 36.234,97.313 45.563,150.901 7.763,42.551 12.751,85.563 14.934,128.762 4.066,89.646 -7.577,203.427 -22.702,292.117 -0.933,-14.43 -2.905,-28.77 -5.901,-42.91 -0.628,-3.11 -3.735,-15.43 -3.969,-17.62 -9.891,-31.4 -20.69,-59.02 -53.174,-72.07 -19.525,-5.96 -35.047,-1.59 -53.172,6.26 z"
         id="path17"
         style="stroke-width:1.1297" /><path
         fill="#77b7e2"
         d="m 751.58081,582.239 c 12.655,-18.685 25.629,-59.382 33.294,-81.315 2.248,-6.433 11.252,-36.424 14.275,-40.094 l 1.752,-0.013 c 14.109,14.69 13.83,179.262 3.853,193.492 -9.891,-31.4 -20.69,-59.02 -53.174,-72.07 z"
         id="path18"
         style="stroke-width:1.1297" /><path
         fill="#326fa2"
         d="m 302.55681,583.819 c -13.191,-31.986 -24.376,-55.833 -35.759,-89.751 -33.152,-100.879 -44.396,-207.671 -32.98,-313.242 6.911,31.923 15.313,63.776 25.531,94.852 3.94,11.982 10.291,21.958 18.182,31.715 2.645,2.388 4.043,3.548 6.208,6.411 35.483,27.844 87.231,50.233 126.156,74.346 -0.677,1.384 -2.625,5.923 -3.208,6.832 -6.85,10.702 -22.609,87.043 -27.642,91.417 l -1.904,0.132 c -41.188,1.595 -58.554,30.62 -69.788,65.701 -2.404,10.981 -4.719,20.297 -4.796,31.587 z"
         id="path19"
         style="stroke-width:1.1297" /><path
         fill="#77b7e2"
         d="m 266.74081,358.033 c 9.689,11.671 21.454,32.925 33.793,48.187 24.962,30.874 49.172,52.635 76.607,80.311 -41.188,1.595 -58.554,30.62 -69.788,65.701 -20.998,-44.586 -46.439,-146.166 -40.612,-194.199 z"
         id="path20"
         style="stroke-width:1.1297" /><path
         fill="#204061"
         d="m 277.53081,307.393 c 2.645,2.388 4.043,3.548 6.208,6.411 -3.168,-2.547 -3.919,-3.064 -6.208,-6.411 z"
         id="path21"
         style="stroke-width:1.1297" /><path
         fill="#326fa2"
         d="m 592.10981,383.894 c 23.031,-12.229 45.845,-24.863 68.432,-37.896 12.293,-6.985 29.622,-16.243 40.669,-24.333 7.412,-5.41 14.069,-11.783 19.798,-18.951 20.654,-26.044 32.592,-87.517 40.992,-120.947 16.05,136.576 -11.709,273.466 -68.539,397.712 -1.151,-10.89 -3.181,-20.089 -5.42,-30.762 -0.29,-1.081 -0.617,-2.152 -0.98,-3.21 -6.777,-19.749 -16.96,-43.775 -37.658,-52.861 -8.656,-3.8 -16.958,-5.384 -25.601,-8.4 -0.7,-0.244 -0.994,-1.886 -1.332,-2.884 -5.567,-23.664 -17.204,-81.081 -30.361,-97.468 z"
         id="path22"
         style="stroke-width:1.1297" /><path
         fill="#77b7e2"
         d="m 622.47081,481.362 c 24.464,-25.944 50.37,-49.258 72.844,-77.203 12.355,-15.363 21.133,-31.875 32.513,-46.931 7.912,48.627 -19.209,142.247 -39.371,190.918 -0.138,0.191 -0.277,0.381 -0.415,0.571 -0.29,-1.081 -0.617,-2.152 -0.98,-3.21 -6.777,-19.749 -16.96,-43.775 -37.658,-52.861 -8.656,-3.8 -16.958,-5.384 -25.601,-8.4 -0.7,-0.244 -0.994,-1.886 -1.332,-2.884 z"
         id="path23"
         style="stroke-width:1.1297" /><g
         id="g121"
         inkscape:label="clothes"><path
           fill="#8a7146"
           d="m 418.62081,879.319 c 1.322,-50.92 3.812,-101.81 7.51,-152.61 0.839,-11.52 -0.653,-50.66 4.602,-57.34 2.556,0.03 9.746,8.5 12.926,10.67 43.583,29.78 81.007,37.38 131.708,25.95 7.387,8.32 -1.534,30.62 -5.23,39.85 -20.092,50.15 -57.306,92.64 -97.142,128.32 -9.688,8.62 -41.381,35.66 -52.117,39.17 -1.83,-1.58 -1.35,-0.63 -1.721,-2.81 -0.622,-1.64 -1.258,-4.65 -1.7,-6.46 l -0.696,6.61 c -1.78,-7.99 -0.897,-38.65 -0.03,-47.6 0.113,4.07 -0.363,13.46 1.89,16.25 z"
           id="path4"
           style="opacity:1;fill:#ffffc1;fill-opacity:1;stroke-width:1.1297" /><path
           fill="#8a7146"
           d="m 433.41781,668.389 c 2.016,-2.32 5.548,-7.03 7.233,-9.78 47.734,-77.91 88.482,-167.607 104.029,-258.027 1.471,-8.56 4.105,-28.222 2.478,-36.137 -1.325,-1.137 -2.284,-1.704 -2.829,-3.35 l 1.881,-0.679 c 5.497,0.693 20.951,8.058 26.764,10.874 0.876,0.425 4.594,4.652 5.498,5.705 2.461,13.621 1.867,40.714 1.572,55.671 -0.803,40.592 -2.566,81.116 -3.329,121.77 0.326,23.513 0.32,47.033 -0.016,70.543 0.68,18.71 5.769,61.63 -1.208,76.94 -4.781,5.03 -25.616,6.81 -32.802,7.2 -38.599,2.13 -80.818,-14.77 -109.271,-40.73 z"
           id="path24"
           style="opacity:1;fill:#ffffc1;fill-opacity:1;stroke-width:1.1297" /></g><path
         fill="#5a4a32"
         d="m 576.71481,554.436 c 0.326,23.513 0.32,47.033 -0.016,70.543 -1.492,-9.23 -1.202,-60.269 0.016,-70.543 z"
         id="path25"
         style="stroke-width:1.1297" /><path
         fill="#fefefe"
         d="m 449.63281,308.099 c 5.278,2.371 6.8,3.157 12.451,3.991 l 1.534,-0.669 c -1.869,-3.309 -18.188,-2.97 -15.44,-13.403 1.042,-3.956 6.056,-7.872 6.249,-10.887 -5.625,3.692 -5.241,6.201 -8.978,11.627 -11.586,-36.72 -16.99,-114.928 0.519,-150.953 25.052,-51.544 108.797,-43.266 122.266,14.416 8.701,36.989 6.903,102.718 -5.557,137.407 -2.011,-3.949 -4.451,-10.194 -8.959,-11.398 l -0.25,1.349 c 2.635,3.069 5.708,6.115 6.803,9.959 -0.96,7.562 -9.529,9.892 -15.956,12.411 7.052,-0.271 7.808,-0.517 14.203,-3.331 -7.907,11.789 -13.02,19.162 -25.57,26.567 -3.455,1.373 -6.711,2.646 -10.224,3.863 -14.073,6.631 -35.339,2.99 -48.622,-4.378 -11.952,-6.503 -17.477,-15.53 -24.469,-26.571 z"
         id="path26"
         style="fill:#fff6d5;fill-opacity:1;stroke-width:1.1297"
         inkscape:label="face" /><path
         fill="#292a22"
         d="m 468.90281,295.609 c -3.12,1.236 -7.603,3.423 -10.716,3.154 1.689,-1.713 3.833,-2.419 6.023,-3.341 22.464,-9.451 63.967,-9.016 85.683,1.83 l -0.523,1.381 1.696,-0.036 c -3.476,0.881 -8.207,-1.911 -11.682,-3.502 -4.163,4.579 -5.65,5.946 -10.632,9.609 -0.694,-3.609 -1.185,-8.729 -3.591,-11.219 -3.616,0.201 -10.681,10.155 -14.304,13.501 0.548,2.771 2.262,10.466 2.419,12.903 l -2.939,-3.577 c -4.492,1.118 -12.027,1.851 -14.422,3.944 -0.328,0.074 -0.655,0.148 -0.982,0.222 l -0.095,-5.843 c 2.811,-7.611 -0.102,-16.695 -7.603,-21.807 -0.49,-0.334 -2.637,0.212 -3.416,0.345 -3.613,3.584 -3.409,5.91 -4.683,11.234 -5.045,-3.1 -6.177,-4.447 -10.233,-8.798 z"
         id="path27"
         style="stroke-width:1.1297" /><path
         fill="#76d68a"
         d="m 489.62881,291.697 c 10.598,-0.333 19.85,-0.655 30.489,-0.1 l -0.188,0.466 c -5.886,14.378 -12.403,8.584 -9.593,24.249 -4.492,1.118 -12.027,1.851 -14.422,3.944 -0.328,0.074 -0.655,0.148 -0.982,0.222 l -0.095,-5.843 c 8.412,-6.088 2.665,-12.55 -2.021,-18.804 -1.036,-1.398 -2.099,-2.777 -3.188,-4.134 z"
         id="path28"
         style="stroke-width:1.1297" /><path
         fill="#77b7e2"
         d="m 494.93281,320.478 c 0.327,-0.074 0.654,-0.148 0.982,-0.222 2.395,-2.093 9.93,-2.826 14.422,-3.944 l 2.939,3.577 c 3.805,-0.483 2.925,-0.972 5.536,0.627 0.549,4.598 -0.984,6.05 0.917,8.863 1.732,0.472 2.616,0.868 4.409,0.6 -0.365,3.163 -0.59,5.981 -1.414,9.069 -14.073,6.631 -35.339,2.99 -48.622,-4.378 0.666,-2.871 0.989,-3.258 2.698,-5.683 4.696,-1.869 3.239,0.202 9.252,0.361 4.186,-2.721 2.894,-4.579 1.874,-8.614 2.905,-1.377 3.367,-0.705 7.007,-0.256 z"
         id="path29"
         style="stroke-width:1.1297" /><path
         fill="#77b7e2"
         d="m 524.13781,329.979 c 3.798,-1.09 3.442,-1.668 6.433,-0.478 0.978,2.098 1.627,3.499 2.377,5.684 -3.455,1.373 -6.711,2.646 -10.224,3.863 0.824,-3.088 1.049,-5.906 1.414,-9.069 z"
         id="path30"
         style="stroke-width:1.1297" /><path
         fill="#292a22"
         d="m 531.35181,184.749 c 43.294,-0.884 46.366,45.073 13.045,55.683 -8.2,0.868 -15.468,0.718 -22.782,-3.364 -6.427,-3.556 -11.162,-9.537 -13.148,-16.609 -5.371,-18.973 5.145,-31.273 22.885,-35.71 z"
         id="path31"
         style="stroke-width:1.1297" /><path
         fill="#f9f49a"
         d="m 525.75881,187.883 c 14.165,-1.85 29.614,-0.995 36.459,13.85 2.952,6.448 3.238,13.802 0.796,20.46 -3.036,8.064 -8.283,12.265 -15.839,15.588 -38.476,8.245 -51.966,-35.712 -21.416,-49.898 z"
         id="path32"
         style="fill:#ffb380;stroke-width:1.1297" /><path
         fill="#292a22"
         d="m 467.10681,184.726 c 26.284,-1.806 41.809,18.76 28.978,43.729 -4.027,7.839 -12.743,10.316 -20.904,12.045 -8.154,0.171 -14.112,0.038 -21.246,-4.51 -6.001,-3.798 -10.208,-9.863 -11.661,-16.814 -4.199,-19.142 7.278,-30.553 24.833,-34.45 z"
         id="path33"
         style="stroke-width:1.1297" /><path
         fill="#f9f49a"
         d="m 461.71981,187.762 c 8.245,-0.731 15.508,-1.594 23.265,1.958 5.948,2.684 10.502,7.735 12.557,13.929 5.376,15.767 -2.962,29.048 -18.184,34.106 -40.721,6.126 -47.365,-38.56 -17.638,-49.993 z"
         id="path34"
         style="fill:#ffb380;stroke-width:1.1297" /><path
         fill="#161d23"
         d="m 504.75781,167.315 c 12.94,-3.877 48.845,-25.454 56.944,-2.448 -0.559,3.375 0.097,2.131 -2.728,4.593 -3.494,1.266 -7.564,-0.494 -11.242,-1.609 -20.789,0.334 -26.708,10.092 -44.262,14.29 -12.901,-3.697 -23.828,-11.872 -36.929,-14.011 -8.009,-1.308 -14.255,6.159 -20.818,-1.154 -0.903,-7.774 9.692,-11.232 15.82,-12.244 17.979,-0.495 27.695,9.8 43.215,12.583 z"
         id="path35"
         style="stroke-width:1.1297" /><path
         fill="#b0d9e6"
         d="m 542.59281,156.754 c 6.313,-0.65 17.592,1.852 17.017,9.955 l -1.297,1.005 c -4.222,-0.378 -18.321,-1.85 -21.706,-1.143 -9.717,2.03 -24.666,14.061 -34.914,12.206 -11.701,-2.117 -19.951,-9.086 -32.558,-12.312 -5.844,-0.369 -18.237,2.35 -20.598,-0.952 0.176,-0.684 0.662,-2.211 1.148,-2.679 17.682,-17.032 41.3,7.064 54.612,5.621 11.972,-1.297 22.298,-9.562 38.296,-11.701 z"
         id="path36"
         style="fill:#666666;stroke-width:1.1297"
         inkscape:label="eyebrows" /><path
         fill="#292a22"
         d="m 514.03181,243.039 c 2.797,6.252 -0.996,26.427 -8.811,29.68 -9.648,-1.437 -11.165,-18.21 -12.518,-26.194 l 0.541,-1.096 1.092,0.033 c 1.414,6.732 3.586,23.639 10.375,25.746 6.279,-3.062 8.229,-21.72 9.321,-28.169 z"
         id="path37"
         style="stroke-width:1.1297" /><path
         fill="#292a22"
         d="m 443.27181,242.178 c 3.845,1.481 5.397,6.708 13.463,9.113 8.22,2.45 19.288,-1.31 23.84,0.469 -10.42,6.988 -30.987,2.743 -37.303,-9.582 z"
         id="path38"
         style="stroke-width:1.1297" /><path
         fill="#292a22"
         d="m 562.53281,243.428 c 0.556,12.265 -26.626,12.08 -35.119,8.953 l -0.08,-0.909 0.996,-0.862 c 13.34,4.023 24.206,2.973 34.203,-7.182 z"
         id="path39"
         style="stroke-width:1.1297" /><path
         fill="#77b7e2"
         d="m 400.46181,421.018 c 8.652,-35.689 15.041,-42.611 49.966,-52.529 -1.682,8.214 -8.394,9.658 -15.53,12.796 0.781,3.713 1.752,7.028 1.216,10.775 -5.646,8.387 -9.553,0.534 -15.129,4.932 -1.181,4.994 0.358,8.573 -1.795,11.593 -2.408,1.195 -2.807,1.087 -5.563,1.255 -7.693,5.798 -0.566,9.881 -13.165,11.178 z"
         id="path41"
         style="stroke-width:1.1297" /><path
         fill="#77b7e2"
         d="m 418.60781,412.876 c 4.377,0.447 4.914,1.284 6.365,5.005 -0.372,4.062 -1.058,4.741 -3.377,8.043 -4.015,-0.471 -4.418,-1.583 -5.889,-4.926 0.08,-4.103 0.615,-4.685 2.901,-8.122 z"
         id="path42"
         style="stroke-width:1.1297" /><path
         fill="#77b7e2"
         d="m 425.28581,400.049 c 1.428,-0.898 3.229,-0.956 4.712,-0.15 1.483,0.805 2.415,2.348 2.439,4.035 0.023,1.687 -0.865,3.255 -2.324,4.102 -2.202,1.277 -5.02,0.555 -6.336,-1.623 -1.316,-2.178 -0.645,-5.009 1.509,-6.364 z"
         id="path43"
         style="stroke-width:1.1297" /><path
         fill="#b0d9e6"
         d="m 362.45881,588.769 c 3.512,0.67 3.969,1.71 5.155,4.67 -0.178,3.77 -2.146,6.47 -4.053,9.76 l -4.141,-0.84 c -4.137,-5.04 -0.344,-9.28 3.039,-13.59 z"
         id="path46"
         style="stroke-width:1.1297" /><path
         fill="#b0d9e6"
         d="m 290.91881,835.589 c 2.008,0.38 1.949,0.49 3.439,1.77 0.989,3.13 -0.642,6.15 -1.842,9.29 -0.926,-0.44 -1.742,-1.17 -2.571,-1.81 -1.269,-2.99 0.063,-6.07 0.974,-9.25 z"
         id="path47"
         style="stroke-width:1.1297" /><path
         fill="#b0d9e6"
         d="m 649.12681,595.509 c -0.565,2.47 -1.471,3.58 -2.811,5.7 -3.289,1.32 -1.893,1.29 -5.233,0.11 -2.564,-2.58 -2.674,-3.28 -3.624,-6.62 0.608,-3.09 -0.041,-2.05 2.398,-3.95 4.875,0.11 4.417,0.87 9.2,3.91 z"
         id="path49"
         style="stroke-width:1.1297" /><path
         fill="#b0d9e6"
         d="m 561.70081,1041.349 c 6.703,-1.95 15.685,-0.41 23.225,-0.12 l -0.118,8.95 -1.413,1.34 -5.457,-3.37 c -2.545,0.67 -1.672,6.94 -5.792,10.96 -7.217,0.98 -7.455,-6.86 -8.37,-12.16 -0.15,-0.74 -1.711,-4.64 -2.075,-5.6 z"
         id="path51"
         style="stroke-width:1.1297" /><path
         fill="#b0d9e6"
         d="m 556.07781,1033.779 c 1.434,1.86 4.574,5.75 5.623,7.57 0.364,0.96 1.925,4.86 2.075,5.6 -1.395,6.52 0.365,13.74 -5.379,19.29 l -1.316,-1.11 c -2.451,-8.46 -1.995,-22.58 -1.003,-31.35 z"
         id="path52"
         style="stroke-width:1.1297" /><path
         fill="#b0d9e6"
         d="m 583.39481,1051.519 1.413,-1.34 -0.035,10.7 c -0.892,3.88 -0.217,4.18 -2.828,6.02 l -1.999,-0.43 c -4.702,-5.67 -0.857,-10.9 3.449,-14.95 z"
         id="path53"
         style="stroke-width:1.1297" /><path
         fill="#b0d9e6"
         d="m 573.13381,1071.069 c 6.365,3.49 5.342,13.01 0.396,17.52 -6.366,-5.47 -6.167,-11.7 -0.396,-17.52 z"
         id="path54"
         style="stroke-width:1.1297" /><path
         fill="#77b7e2"
         d="m 454.75581,1084.389 c 4.453,-1.04 6.311,-6.22 12.087,-10.49 l -0.647,8.1 c -4.455,2.4 -5.461,2.96 -9.058,6.45 z"
         id="path56"
         style="stroke-width:1.1297" /><path
         fill="#b0d9e6"
         d="m 466.19581,1081.999 -0.552,17.35 c -3.939,1.64 -5.455,2.48 -8.38,-0.9 -1.064,-4.11 -0.658,-5.75 -0.126,-10 3.597,-3.49 4.603,-4.05 9.058,-6.45 z"
         id="path58"
         style="stroke-width:1.1297" /><path
         fill="#b0d9e6"
         d="m 443.15281,1098.979 c 1.682,0.17 3.58,0.52 5.273,0.8 5.001,4.75 2.258,9.1 -0.276,14.56 -3.76,-0.4 -2.344,0.18 -5.317,-2.31 -2.131,-4.79 -1.39,-8.26 0.32,-13.05 z"
         id="path59"
         style="stroke-width:1.1297" /><g
         id="g124"
         inkscape:label="arms-legs-darker"
         style="fill:#38524b;fill-opacity:1"><path
           fill="#77b7e2"
           d="m 359.98881,573.679 0.437,0.63 c 1.808,2.64 2.169,3.34 3.441,6.37 l 1.885,1.31 c 5.906,-2.74 4.894,-8.44 8.752,-8.28 -0.799,4.06 -2.829,11.23 -1.551,14.73 4.056,2.42 7.972,-1.33 12.869,-2.48 -5.547,13.33 -12.565,45.49 -16.847,61.36 -14.974,53.98 -28.655,108.3 -41.033,162.93 3.885,10.38 17.312,73.76 13.268,81.29 l -1.742,-0.41 c -7.134,-8.4 -13.042,-29.96 -16.733,-41.37 -4.484,23.08 -4.06,44.04 -5.981,67.23 -0.198,2.39 -0.768,4.47 -2.426,6.12 -8.005,-5.9 -6.64,-57.84 -6.813,-70.13 -7.053,17.19 -13.088,60.91 -18.25,68.18 l -1.494,-0.8 c -4.954,-15.54 3.191,-54.23 7.134,-70.12 -8.494,10.45 -14.939,27.65 -23.102,38.96 l -6.265,-4.31 c 11.376,-30.89 28.299,-56.96 41.831,-86.31 3.246,-7.04 7.833,-35 9.724,-44.08 1.839,-1.38 2.178,-0.82 5.005,-0.57 l 1.074,-0.98 c -5.152,-5.91 -4.158,-10.94 -1.81,-17.99 3.113,-0.93 3.807,0.13 7.479,1.57 l 1.289,-0.64 c -1.726,-2.36 -5.081,-3.2 -7.985,-4.34 1.098,-5.32 2.225,-12.21 4.393,-17.04 l 6.527,0.75 c -1.003,-1.83 -4.403,-2.88 -6.518,-3.8 1.193,-6.22 2.307,-13.69 4.661,-19.46 3.073,-0.35 4.049,-0.24 7.056,0.02 -2.126,-1.87 -4.8,-2.52 -7.526,-3.49 1.812,-5.35 3.529,-12 5.005,-17.51 2.818,-1.95 3.423,1.86 6.718,0.58 l -0.715,-2.47 c -1.946,-0.38 -1.853,-0.43 -3.177,-1.78 -0.795,-4.42 0.124,-12.65 1.728,-16.82 3.253,-1.34 3.43,-0.49 7.67,0.64 l 0.801,-0.7 c -1.451,-2.21 -4.972,-3.04 -7.688,-4.06 1.357,-5.35 3.053,-13.46 5.537,-18.14 1.727,0.26 5.197,0.91 6.776,0.75 l -6.873,-4.04 c 4.213,-17.17 8.703,-34.27 13.469,-51.3 z"
           id="path45"
           style="fill:#38524b;fill-opacity:1;stroke-width:1.1297" /><path
           fill="#77b7e2"
           d="m 621.82781,597.419 c 12.634,-2.39 9.136,-8.35 11.199,-16.79 l 1.738,-0.45 c 5.935,4.68 4.684,3.74 11.806,2.37 l 2.486,12.11 0.07,0.85 c 2.795,7.06 6.859,22.38 7.617,29.88 -2.32,4.41 -5.782,2.62 -6.344,5.42 l 0.805,-0.19 c 2.728,-0.65 3.509,-0.91 6.151,0.29 3.838,3.32 4.912,11.09 3.229,15.73 -1.906,1.99 -2.229,2.36 -4.666,3.63 l -0.038,1.24 c 2.375,-0.34 4.171,-0.78 6.48,-1.35 2.17,2.03 4.685,14.64 4.437,17.84 -2.063,1.66 -2.664,1.85 -5.107,2.97 l 0.192,1.29 c 2.423,-0.29 3.062,-0.64 5.363,-1.54 2.455,2.46 4.185,14 5.262,18.27 -2.442,1.17 -6.124,2.48 -7.438,4.57 l 7.541,-0.79 c 2.442,4.61 3.664,14 4.929,19.49 -2.2,0.87 -6.232,2.02 -7.291,3.84 2.889,-0.13 5.274,-0.32 8.165,0.02 1.753,4.98 2.442,11.4 3.225,16.71 -2.846,1.19 -5.065,1.49 -6.535,3.67 3.423,0.13 4.72,-0.5 7.868,-1.6 1.444,6.83 4.618,13.96 -2.479,18.08 3.71,2.32 3.366,-1.66 6.437,1.98 2.951,14.73 4.798,31.81 10.152,45.81 5.604,14.65 45.82,76.09 37.806,87.73 -0.086,0.13 -0.182,0.25 -0.273,0.37 -6.42,0.11 -20.808,-31.25 -24.199,-38.57 0.477,13.2 11.191,59.43 4.346,69.23 -5.557,-2.31 -8.42,-24.76 -9.387,-30.81 -2.099,-13.14 -4.684,-23.91 -9.371,-36.37 0.024,14.31 1.22,57.14 -5.757,67.45 l -1.516,-0.08 c -4.805,-8.31 -3.337,-52.55 -7.747,-70.49 -2.82,8.13 -11.164,38.39 -18.325,41.85 -4.134,-4.68 2.093,-28.72 3.127,-36.03 2.086,-14.76 4.258,-31.56 10.559,-45.1 -13.672,-51.12 -25.072,-103.9 -39.621,-154.97 -4.922,-17.28 -9.502,-41.39 -14.896,-57.56 z"
           id="path48"
           style="fill:#38524b;fill-opacity:1;stroke-width:1.1297" /><path
           fill="#77b7e2"
           d="m 550.03781,1023.949 c 0.545,4.66 -0.1,6.01 2.373,9.11 l 3.667,0.72 c 1.434,1.86 4.574,5.75 5.623,7.57 6.703,-1.95 15.685,-0.41 23.225,-0.12 l -0.118,8.95 -0.035,10.7 c 0.371,15.98 -1.197,34.29 -1.175,50.57 0.065,49.29 -3.662,103.02 -2.299,151.89 7.089,8.15 16.619,15.44 24.682,22.69 4.514,4.05 13.284,7.97 15.234,13.6 -5.814,7.29 -17.995,-0.16 -20.865,17.05 -16.654,-8.27 -25.717,-10.38 -43.25,-21.33 7.999,-11.77 3.526,-12.25 -3.823,-19.12 -0.961,-8.24 0.047,-27.91 0.198,-37.27 0.148,-17.48 0.063,-34.97 -0.255,-52.45 -0.648,-52.26 -4.034,-110.89 -3.182,-162.56 z"
           id="path50"
           style="fill:#38524b;fill-opacity:1;stroke-width:1.1297" /><path
           fill="#77b7e2"
           d="m 466.19581,1081.999 -0.552,17.35 c -3.69,52.75 -3.68,106.85 -5.577,159.74 -0.985,27.45 11.608,40.44 -4.364,66.29 -2.207,-3.31 -3.908,-6.53 -7.326,-8.5 -3.608,0.35 -2.972,3.1 -8.32,3.6 -3.555,-3.4 -3.315,-4.07 -7.343,-4.36 l -0.664,0.45 c -1.952,1.3 -2.481,1.83 -4.791,2.35 -9.815,-8.57 -7.099,-1.28 -14.255,-5.54 l -1.009,-2.21 c 6.845,-12.84 15.297,-24.78 21.516,-37.95 3.618,-7.66 -3.843,-144.52 -2.443,-171.87 1.603,0.23 2.943,-0.1 4.547,-0.35 4.256,-4.34 0.39,-4.26 3.855,-10.01 3.218,0.77 5.56,3.14 8.188,2.72 5.222,-0.85 1.27,-5.82 4.848,-10 l 2.25,0.68 2.382,4.06 c 3.597,-3.49 4.603,-4.05 9.058,-6.45 z"
           id="path57"
           style="fill:#38524b;fill-opacity:1;stroke-width:1.1297" /><path
           fill="#77b7e2"
           d="m 210.62281,1140.739 c 0.53,10.43 3.439,26.45 7.962,35.87 4.958,10.49 13.985,18.5 24.989,22.17 16.623,5.59 38.09,0.29 53.307,-7.86 68.029,-36.47 99.118,-117.01 119.008,-187.33 5.808,-20.54 9.624,-43.44 16.043,-62.97 -2.54,26.17 2.23,52.55 -1.467,76.99 -4.097,15.64 -11.69,32.14 -18.264,46.74 -30.217,67.09 -79.284,168.08 -168.507,152.73 -39.007,-6.71 -44.703,-49.23 -36.822,-81.69 3.368,1.54 1.486,1.7 3.751,5.35 z"
           id="path60"
           style="fill:#38524b;fill-opacity:1;stroke-width:1.1297" /></g><g
         id="g123"
         inkscape:label="arms-legs-lighter"
         style="fill:#74aa9c;fill-opacity:1"><path
           fill="#b0d9e6"
           d="m 477.31581,359.973 c 2.245,0.249 5.22,0.018 6.247,1.253 -4.437,13.164 -25.171,27.825 -31.448,47.356 -16.859,52.457 -8.819,107.651 -6.333,161.617 1.136,22.42 2.372,46.84 4.281,68.65 -4.73,8.48 -10.677,18.71 -16.546,26.51 0.085,-30.47 2.685,-59.45 2.496,-89.73 -0.245,-39.371 -2.876,-78.93 -5.139,-118.247 -0.62,-10.76 4.236,-18.385 3.564,-21.626 -3.511,2.715 -48.287,143.863 -48.616,150.203 -4.897,1.15 -8.813,4.9 -12.869,2.48 -1.278,-3.5 0.752,-10.67 1.551,-14.73 -3.858,-0.16 -2.846,5.54 -8.752,8.28 l -1.885,-1.31 c -1.272,-3.03 -1.633,-3.73 -3.441,-6.37 l -0.437,-0.63 c 12.621,-51.597 27.921,-101.966 40.473,-152.661 8.652,-35.689 15.041,-42.611 49.966,-52.529 7.786,-3.249 16.984,-3.788 26.888,-8.516 z"
           id="path40"
           style="fill:#74aa9c;fill-opacity:1;stroke-width:1.1297" /><path
           fill="#b0d9e6"
           d="m 530.97081,816.779 c 20.535,-27.87 24.249,-36.84 40.116,-66.22 1.909,17.01 2.447,38.6 3.394,55.95 l 5.11,90.07 c 1.643,31.07 3.959,62.18 5.957,93.24 1.128,17.51 0.235,33.93 -0.622,51.41 -7.54,-0.29 -16.522,-1.83 -23.225,0.12 -1.049,-1.82 -4.189,-5.71 -5.623,-7.57 l -3.667,-0.72 c -2.473,-3.1 -1.828,-4.45 -2.373,-9.11 -0.251,-38.67 -3.736,-62.85 -7.681,-101.14 -3.479,-35.38 -7.275,-70.72 -11.386,-106.03 z"
           id="path44"
           style="fill:#74aa9c;fill-opacity:1;stroke-width:1.1297" /><path
           fill="#b0d9e6"
           d="m 474.87281,875.629 c -0.375,28.77 -4.19,60.68 -4.66,89.69 -0.589,36.37 -1.007,72.19 -3.37,108.58 l -0.647,8.1 c -4.455,2.4 -5.461,2.96 -9.058,6.45 l -2.382,-4.06 -2.25,-0.68 c -3.578,4.18 0.374,9.15 -4.848,10 -2.628,0.42 -4.97,-1.95 -8.188,-2.72 -3.465,5.75 0.401,5.67 -3.855,10.01 -1.604,0.25 -2.944,0.58 -4.547,0.35 -2.027,-29.62 2.565,-61.59 2.724,-90.46 0.189,-34.1 -0.117,-68.3 0.153,-102.48 14.665,-11.19 26.802,-20.81 40.928,-32.78 z"
           id="path55"
           style="fill:#74aa9c;fill-opacity:1;stroke-width:1.1297" /><path
           fill="#b0d9e6"
           d="m 581.55681,379.409 c 16.414,11.695 19.676,22.172 23.524,41.946 9.649,46.417 24.988,93.47 35.949,139.745 1.609,6.792 3.428,14.859 5.541,21.449 -7.122,1.37 -5.871,2.31 -11.806,-2.37 l -1.738,0.45 c -2.063,8.44 1.435,14.4 -11.199,16.79 l -29.732,-99.592 c -4.146,-13.921 -10.709,-25.225 -10.52,-40.142 0.154,-12.231 0.276,-24.455 0.5,-36.688 -0.181,-5.147 -0.098,-7.92 0.396,-13.045 l 0.211,-9.75 c -0.758,-6.452 -0.903,-12.311 -1.126,-18.793 z"
           id="path62"
           style="fill:#74aa9c;fill-opacity:1;stroke-width:1.1297" /></g><path
         fill="#77b7e2"
         d="m 581.55681,379.409 c 16.414,11.695 19.676,22.172 23.524,41.946 -8.4,-1.894 -9.883,-6.403 -11.988,-14.272 l -0.319,1.199 c -4.933,-3.652 -5.353,-2.521 -10.302,-0.33 l 0.211,-9.75 c -0.758,-6.452 -0.903,-12.311 -1.126,-18.793 z"
         id="path63"
         style="stroke-width:1.1297" /><path
         fill="#cfdae1"
         d="m 582.68281,398.202 c 6.288,1.068 7.546,3.29 10.41,8.881 l -0.319,1.199 c -4.933,-3.652 -5.353,-2.521 -10.302,-0.33 z"
         id="path64"
         style="stroke-width:1.1297" /><path
         fill="#77b7e2"
         d="m 582.47181,407.952 c 4.949,-2.191 5.369,-3.322 10.302,0.33 -0.188,2.983 0.259,3.221 -1.345,5.203 -4.924,-0.004 -4.017,-1.097 -7.971,0.69 -1.059,2.395 -1.088,4.231 -1.382,6.822 -0.181,-5.147 -0.098,-7.92 0.396,-13.045 z"
         id="path65"
         style="stroke-width:1.1297" /><path
         fill="#77b7e2"
         d="m 591.38281,419.933 c 3.045,1.009 4.176,1.16 6.158,3.799 1.01,3.316 0.291,4.532 -0.848,7.722 -3.905,-0.441 -4.562,-0.974 -6.719,-3.93 -0.486,-3.659 -0.033,-4.358 1.409,-7.591 z"
         id="path66"
         style="stroke-width:1.1297" /><path
         fill="#767877"
         d="m 405.34781,80.223 c -1.548,-2.534 -0.722,-5.62 0.034,-8.274 0.443,3.395 0.815,4.865 -0.034,8.274 z"
         id="path72"
         style="stroke-width:1.1297" /><path
         fill="#326fa2"
         d="m 444.38681,475.657 c 32.45,6.213 44.188,6.241 77.19,5.911 -4.685,15.272 -10.131,30.301 -16.316,45.03 -24.045,0.08 -36.316,0.735 -59.876,-4.561 l -0.552,-29.543 c -1.126,-5.36 -1.103,-11.412 -0.446,-16.837 z"
         id="path74"
         style="stroke-width:1.1297" /><path
         fill="#204061"
         d="m 444.83281,492.494 c -1.126,-5.36 -1.103,-11.412 -0.446,-16.837 0.298,5.643 0.701,11.189 0.446,16.837 z"
         id="path75"
         style="stroke-width:1.1297" /><path
         fill="#326fa2"
         d="m 471.42381,381.156 c 2.725,0.582 10.206,3.137 13.807,4.034 19.636,4.891 32.963,2.925 51.61,-4.04 l 6.656,9.122 c -0.947,7.579 -1.729,20.724 -4.873,27.41 -0.919,1.953 -3.323,1.974 -5.66,2.51 -26.962,2.304 -54.428,2.204 -80.739,-4.617 5.148,-15.157 9.576,-21.819 19.199,-34.419 z"
         id="path76"
         style="stroke-width:1.1297" /><path
         fill="#326fa2"
         d="m 198.80681,1132.559 c 3.146,-12.06 14.211,-36.3 20.191,-47 -0.341,24.02 -1.443,34.38 6.103,57.45 2.363,7.23 2.482,12.15 6.107,21.13 -5.533,0.49 -8.87,0.84 -14.397,2.02 -2.784,-12.42 -3.951,-33.19 -6.481,-41.92 l -1.623,-0.05 c -6.45,8.08 -7.091,34.05 -7.164,44.5 -6.555,-2.8 -11.519,-3.93 -18.519,-5.14 3.491,-6.05 13.417,-22.05 11.751,-28.7 -0.667,-2.99 -1.876,-6.42 0.402,-8.76 2.476,1.63 2.679,3.55 3.63,6.47 z"
         id="path78"
         style="stroke-width:1.1297" /><path
         fill="#45618a"
         d="m 194.77481,1134.849 c -0.667,-2.99 -1.876,-6.42 0.402,-8.76 2.476,1.63 2.679,3.55 3.63,6.47 -1.39,0.91 -2.464,1.71 -4.032,2.29 z"
         id="path79"
         style="stroke-width:1.1297" /><path
         fill="#326fa2"
         d="m 447.90381,570.209 c 12.792,2.28 23.971,2.47 36.863,2.83 -4.124,9.31 -9.189,18.83 -13.844,27.94 -2.883,5.34 -5.806,10.66 -8.769,15.96 -3.863,-0.32 -7.335,-0.24 -10.595,-2.29 -1.539,-3.81 -2.426,-35.91 -3.655,-44.44 z"
         id="path82"
         style="stroke-width:1.1297" /><g
         id="g125"
         inkscape:label="body-g"
         style="fill:#88aa00"><path
           fill="#326fa2"
           d="m 451.46281,418.133 c 31.245,6.214 54.878,7.455 86.854,3.422 -4.609,18.102 -6.499,30.157 -12.8,48.815 l -2.551,8.465 c -28.205,1.326 -50.925,0.447 -78.573,-5.75 0.852,-20.419 1.512,-34.98 7.07,-54.952 z"
           id="path69"
           style="fill:#88aa00;stroke-width:1.1297" /><path
           fill="#326fa2"
           d="m 445.60581,525.234 c 22.278,2.875 35.941,4.277 58.368,4.306 -3.382,8.73 -7.854,18.478 -11.594,27.165 -1.915,4.464 -4.4,9.421 -6.496,13.864 -14.571,-0.06 -23.54,-0.18 -37.815,-2.632 -0.257,-13.426 -1.976,-28.644 -2.463,-42.703 z"
           id="path77"
           style="fill:#88aa00;stroke-width:1.1297" /><path
           fill="#326fa2"
           d="m 486.69881,359.942 c 14.848,4.57 20.818,3.474 35.858,1.141 2.606,7.136 7.842,12.654 12.654,18.566 l -11.036,3.556 c -16.92,4.285 -35.004,2.333 -50.993,-4.382 6.648,-6.678 10.288,-9.788 13.517,-18.881 z"
           id="path83"
           style="fill:#88aa00;stroke-width:1.1297" /></g><g
         id="g120"
         inkscape:label="bones"
         style="fill:#f8f9ec;fill-opacity:1"><path
           fill="#fefefe"
           d="m 418.53881,6.785 c 16.33,24.605 4.574,41.752 12.642,65.153 4.58,13.284 25.74,38.67 35.531,49.995 -14.288,10.406 -18.074,16.477 -26.418,31.99 -12.426,-17.631 -33.45,-52.185 -34.946,-73.7 -1.548,-2.534 -0.722,-5.62 0.034,-8.274 1.259,-10.965 6.39,-23.772 9.203,-34.683 2.884,-11.182 3.528,-19.093 3.954,-30.481 z"
           id="path71"
           style="fill:#f8f9ec;fill-opacity:1;stroke-width:1.1297" /><path
           fill="#fefefe"
           d="m 588.24281,8.117 c 2.893,2.718 1.424,17.403 2.578,22.1 3.157,12.846 8.942,26.919 11.067,39.811 3.916,23.763 -19.696,65.773 -33.828,83.605 l -4.099,-7.551 c -8.022,-12.467 -10.037,-14.623 -21.36,-24.261 9.254,-11.058 33.052,-40.457 35.586,-53.258 5.466,-27.607 -3.639,-31.784 10.056,-60.446 z"
           id="path73"
           style="fill:#f8f9ec;fill-opacity:1;stroke-width:1.1297" /><path
           fill="#fefefe"
           d="m 222.95881,27.887 c 16.685,2.83 36.108,25.39 27.872,41.742 -22.588,8.784 -18.369,-18.139 -21.205,-30.268 -0.892,-3.817 -4.271,-8.209 -6.667,-11.474 z"
           id="path87"
           style="fill:#f8f9ec;fill-opacity:1;stroke-width:1.1297" /><path
           fill="#fefefe"
           d="m 771.36781,27.525 c 0.276,4.339 -5.459,8.047 -6.353,15.733 -0.965,8.294 -0.477,11.468 0.238,19.76 -6.562,7.027 -8.742,7.998 -18.341,7.314 -11.238,-17.362 9.227,-36.392 24.456,-42.807 z"
           id="path88"
           style="fill:#f8f9ec;fill-opacity:1;stroke-width:1.1297" /></g><g
         id="g119"
         inkscape:label="hairs"
         style="fill:#333333"><path
           fill="#b0d9e6"
           d="m 462.87981,19.814 c 4.371,2.44 34.165,38.685 38.604,45.228 3.366,4.96 11.062,18.807 14.51,24.922 5.165,-5.272 9.686,-12.028 15.715,-17.868 10.793,-10.456 21.609,-20.369 31.639,-31.554 0.817,8.098 5.462,39.392 3.81,45.51 -6.897,11.176 -17.965,24.535 -26.322,34.924 -26.998,-12.398 -45.486,-13.618 -72.408,-0.05 l -12.596,-15.385 c -0.134,-31.291 1.236,-54.655 7.048,-85.727 z"
           id="path61"
           style="fill:#333333;stroke-width:1.1297" /><path
           fill="#b0d9e6"
           d="m 378.99981,111.297 c 11.292,2.686 25.186,4.258 37.428,6.984 7.773,15.068 13.216,24.666 23.534,37.927 -7.612,25.37 -7.782,55.292 -6.855,81.607 -11.087,6.215 -13.216,7.906 -16.705,20.016 l 2.295,9.58 c -11.726,-6.389 -24.431,-12.223 -36.511,-18.007 0.564,-3.599 12.912,-13.181 16.512,-16.665 5.158,-4.994 10.384,-10.06 15.443,-15.189 -10.823,-7.433 -32.155,-17.931 -45.538,-26.236 19.264,-6.251 30.019,-11.883 48.016,-20.942 -15.772,-23.231 -23.174,-33.712 -37.619,-59.075 z"
           id="path67"
           style="fill:#333333;stroke-width:1.1297" /><path
           fill="#b0d9e6"
           d="m 625.99081,112.942 0.555,0.969 c -3.926,12.548 -27.944,46.623 -36.268,57.341 13.681,8.364 33.67,16.414 48.72,21.305 -15.889,9.822 -28.801,17.025 -45.334,25.894 6.876,9.601 20.693,21.778 29.629,29.576 l 2.03,2.021 c -2.815,4.509 -27.993,14.34 -34.75,17.209 2.363,-15.402 -1.738,-21.455 -15.535,-28.685 1.65,-31.146 1.12,-52.31 -5.926,-82.76 8.91,-12.176 14.48,-22.527 21.876,-35.675 9.927,-1.536 24.658,-5.138 35.003,-7.195 z"
           id="path68"
           style="fill:#333333;stroke-width:1.1297" /><path
           fill="#b0d9e6"
           d="m 422.53781,273.103 c 5.396,5.088 9.73,6.626 16.421,9.279 2.189,11.524 5.29,18.426 9.984,29.225 -5.309,2.38 -11.751,4.337 -17.335,6.198 2.371,-8.511 4.423,-15.848 6.08,-24.507 -8.852,0.633 -17.719,1.025 -26.592,1.177 4.588,-7.621 7.551,-13.35 11.442,-21.372 z"
           id="path90"
           style="fill:#333333;stroke-width:1.1297" /><path
           fill="#b0d9e6"
           d="m 583.77381,275.374 c 2.994,1.418 10.069,17.039 12.009,20.867 -8.212,-0.86 -17.462,-1.31 -25.735,-1.866 1.932,7.857 3.219,14.018 4.545,21.997 l -0.444,1.419 c -3.499,-0.311 -11.856,-4.148 -15.529,-5.671 6.136,-11.451 8.114,-16.924 11.337,-29.595 6.235,-2.459 8.206,-3.193 13.817,-7.151 z"
           id="path91"
           style="fill:#333333;stroke-width:1.1297" /></g><path
         fill="#fefefe"
         d="m 431.07081,240.881 1.348,0.591 c 1.588,2.233 4.828,32.694 5.068,37.405 -2.285,0.355 -4.718,-1.119 -7.212,-2.105 -15.106,-12.428 -15.377,-24.568 0.796,-35.891 z"
         id="path93"
         style="stroke-width:1.1297" /><path
         fill="#fefefe"
         d="m 575.24481,240.987 c 16.382,9.035 19.433,22.529 4.568,35.11 -2.195,1.298 -6.931,3.284 -9.444,4.419 z"
         id="path94"
         style="stroke-width:1.1297" /><path
         fill="#b0d9e6"
         d="m 519.79681,342.809 9.332,-2.408 c 0.703,17.974 -1.3,20.346 16.645,24.906 -0.452,7.017 -0.768,15.255 -1.469,22.151 -5.72,-7.091 -14.457,-16.285 -18.55,-24.125 -1.653,-3.166 -1.018,-16.292 -2.832,-18.576 z"
         id="path96"
         style="stroke-width:1.1297" /><path
         fill="#326fa2"
         d="m 486.84581,347.845 c 7.258,2.347 14.907,3.245 22.512,2.644 5.081,-0.435 8.63,-2.457 12.035,-1.505 l 1.135,9.28 c -10.159,2.407 -26.613,5.428 -35.187,-1.666 -1.72,-3.8 -0.959,-3.974 -0.495,-8.753 z"
         id="path97"
         style="stroke-width:1.1297" /><path
         fill="#326fa2"
         d="m 427.73281,459.493 c 1.473,2.038 2.801,32.593 2.809,37.045 -2.609,0.634 -5.093,-0.807 -8.072,-1.806 -3.684,-1.41 -3.138,-0.542 -4.616,-3.384 0.401,-8.014 6.826,-23.721 9.879,-31.855 z"
         id="path98"
         style="stroke-width:1.1297" /><path
         fill="#fefefe"
         d="m 444.14681,1318.769 c 4.486,0.34 6.679,1.14 8.526,5.41 0.166,6.72 -2.975,9.22 -7.431,13.92 -1.827,1.79 -2.178,1.97 -4.497,3.07 -5.882,-3.55 0.532,-17.91 3.402,-22.4 z"
         id="path100"
         style="stroke-width:1.1297" /><path
         fill="#fefefe"
         d="m 431.51981,1317.719 c 4.986,0.77 5.936,1.9 7.06,6.39 -1.366,7.03 -5.95,10.49 -11.068,15.19 l -2.106,1.5 -1.266,-1.13 c -0.716,-7.01 3.355,-16.28 7.38,-21.95 z"
         id="path101"
         style="stroke-width:1.1297" /><path
         fill="#fefefe"
         d="m 604.42781,1307.239 c 7.551,0.32 19.957,8.15 20.143,16.15 -7.214,-1.55 -15.566,-2.22 -20.442,-7.36 -1.481,-2.81 -0.412,-5.66 0.299,-8.79 z"
         id="path102"
         style="stroke-width:1.1297" /><path
         fill="#fefefe"
         d="m 420.61581,1315.909 c 2.929,1.45 4.419,3.22 5.411,6.09 -0.998,6.29 -6.033,9.57 -10.835,13.59 l -2.996,1.5 -1.234,-1.04 c -0.364,-6.58 4.889,-15.76 9.654,-20.14 z"
         id="path103"
         style="stroke-width:1.1297" /><path
         fill="#fefefe"
         d="m 612.39681,1304.669 c 8.335,-1.83 20.942,8.71 24.052,15.73 -7.964,-1.67 -21.272,-7.64 -24.052,-15.73 z"
         id="path104"
         style="stroke-width:1.1297" /><path
         fill="#fefefe"
         d="m 553.12981,1278.879 c 3.698,0.83 4.982,2.62 5.897,6.19 -0.697,6.5 -3.216,8.33 -8.192,12.4 l -2.813,0.66 -0.808,-1.52 c 0.016,-6 2.861,-12.67 5.916,-17.73 z"
         id="path105"
         style="stroke-width:1.1297" /><path
         fill="#cfdae1"
         d="m 478.39281,342.226 1.158,-1.792 c 15.162,2.99 22.423,7.109 40.246,2.375 l 3.126,1.948 c -12.609,5.046 -26.021,4.751 -38.57,-0.469 z"
         id="path106"
         style="stroke-width:1.1297" /><path
         fill="#fefefe"
         d="m 409.83981,1313.849 c 3.013,0.99 3.877,2.46 4.478,5.18 -1.178,5.66 -4.82,8.42 -9.343,11.64 l -2.185,0.81 -1.328,-0.96 c -0.027,-4.97 5.466,-12.45 8.378,-16.67 z"
         id="path107"
         style="stroke-width:1.1297" /><path
         fill="#cfdae1"
         d="m 478.39281,342.226 5.96,2.062 c -0.142,3.362 -0.36,14.143 -0.79,16.938 -1.027,-1.235 -4.002,-1.004 -6.247,-1.253 0.576,-5.184 0.785,-12.401 1.077,-17.747 z"
         id="path108"
         style="stroke-width:1.1297" /><path
         fill="#45618a"
         d="m 450.86081,617.519 c 4.23,0.69 5.873,0.25 8.399,2.78 0.187,3.09 -3.009,7.84 -4.675,10.83 -1.386,2.49 -0.671,2.12 -2.767,2.81 -1.413,-3.17 -0.962,-12.46 -0.957,-16.42 z"
         id="path109"
         style="stroke-width:1.1297" /><g
         id="g126"
         inkscape:label="body-tail"
         style="fill:#88aa00;fill-opacity:1"><path
           fill="#b0d9e6"
           d="m 404.99281,1085.359 c 7.099,8.21 10.999,9.58 21.024,11.56 -8.796,16.08 -15.754,28.03 -26.381,42.96 l -0.966,0.99 c -7.771,1.15 -13.206,-4.18 -18.2,-9.38 9.185,-15.65 16.497,-29.89 24.523,-46.13 z"
           id="path80"
           style="fill:#88aa00;fill-opacity:1;stroke-width:1.1297" /><path
           fill="#b0d9e6"
           d="m 476.21481,887.719 c 12.103,4.28 16.376,3.95 28.568,1.76 -1.564,9.98 -6.337,26.21 -9.199,36.23 -0.749,3.39 -1.12,6.91 -3.375,9.45 -3.875,2.3 -14.426,2.4 -17.932,-0.82 -0.698,-7.45 1.602,-36.43 1.938,-46.62 z"
           id="path81"
           style="fill:#88aa00;fill-opacity:1;stroke-width:1.1297" /><path
           fill="#b0d9e6"
           d="m 514.74581,835.369 c 2.622,2.95 -7.951,46.18 -9.729,52.53 -9.905,1.56 -13.742,1.78 -23.456,-0.19 -1.286,-0.66 -2.431,-1.43 -3.657,-2.2 -1.663,-3.09 -0.961,-8.31 -0.792,-12.03 14.725,-13.48 24.387,-23.27 37.634,-38.11 z"
           id="path84"
           style="fill:#88aa00;fill-opacity:1;stroke-width:1.1297" /><path
           fill="#b0d9e6"
           d="m 378.89881,1133.899 c -2.401,-0.99 18.686,11.29 17.081,10.17 -1.705,6.85 -23.84,29.71 -29.882,36.06 -6.83,6.38 -10.803,-1.02 -15.191,-6.5 10.599,-12.3 19.974,-25.61 27.992,-39.73 z"
           id="path85"
           style="fill:#88aa00;fill-opacity:1;stroke-width:1.1297" /><path
           fill="#b0d9e6"
           d="m 421.87781,1046.829 7.64,4.77 c -0.603,6.56 -0.381,39.27 -2.49,42.41 -3.711,0.99 -6.899,-0.31 -10.637,-1.35 -4.767,-3.28 -6.49,-5.01 -10.521,-9.03 5.646,-12.13 10.984,-24.4 16.008,-36.8 z"
           id="path86"
           style="fill:#88aa00;fill-opacity:1;stroke-width:1.1297" /><path
           fill="#b0d9e6"
           d="m 473.63281,937.389 c 6.773,1.33 11.756,1.06 18.624,0.98 -4.974,14.5 -9.175,29.88 -14.302,44.84 -0.699,2.27 -2.377,8.59 -4.674,9.39 -3.247,-5.66 -0.08,-46.58 0.352,-55.21 z"
           id="path89"
           style="fill:#88aa00;fill-opacity:1;stroke-width:1.1297" /><path
           fill="#b0d9e6"
           d="m 349.47681,1175.119 c 4.451,4.99 5.689,6.39 11.341,10.25 -10.953,9.63 -21.328,17.05 -33.314,25.13 l -2.557,0.56 c -3.107,-1.38 -4.903,-4.68 -6.929,-7.55 12.32,-9 21.683,-16.69 31.459,-28.39 z"
           id="path92"
           style="fill:#88aa00;fill-opacity:1;stroke-width:1.1297" /><path
           fill="#b0d9e6"
           d="m 316.00581,1204.419 c 1.545,0.62 6.003,6.86 7.353,8.61 -14.145,7.32 -25.277,10.78 -40.67,14.08 l -3.086,-0.22 c -2.295,-1.83 -2.724,-2.09 -3.774,-4.8 2.081,-3.15 17.287,-6.87 21.756,-8.6 6.923,-2.68 12.001,-5.34 18.421,-9.07 z"
           id="path95"
           style="fill:#88aa00;fill-opacity:1;stroke-width:1.1297" /><path
           fill="#b0d9e6"
           d="m 224.10281,1212.289 c 2.708,0.32 17.055,7.61 24.114,8.23 8.48,0.74 16.033,-0.2 24.407,0.27 1.305,0.08 3.132,4.76 3.973,6.48 -18.335,2.86 -38.165,-3.63 -52.494,-14.98 z"
           id="path99"
           style="fill:#88aa00;fill-opacity:1;stroke-width:1.1297" /><path
           fill="#b0d9e6"
           d="m 430.34881,1026.169 c 0.85,3.6 0.271,18.87 -1.625,22.1 l -2.955,-0.14 c -4.669,-5.53 1.849,-15.87 4.58,-21.96 z"
           id="path110"
           style="fill:#88aa00;fill-opacity:1;stroke-width:1.1297" /></g><path
         fill="#cfdae1"
         d="m 737.74181,887.519 c 2.282,2.42 4.324,12.07 2.774,15.44 l -1.838,-0.05 c -2.243,-2.98 -5.121,-6.29 -6.045,-9.83 1.058,-3.7 1.16,-2.8 5.109,-5.56 z"
         id="path111"
         style="stroke-width:1.1297" /><path
         fill="#cfdae1"
         d="m 264.98181,886.799 c 2.634,1.39 3.129,1.59 4.979,3.9 0.621,3.52 -2.778,7.94 -4.777,11.25 -1.29,0.87 -1.038,0.63 -2.611,1.06 -2.066,-4.44 0.873,-11.37 2.409,-16.21 z"
         id="path112"
         style="stroke-width:1.1297" /><path
         fill="#326fa2"
         d="m 458.54981,351.476 c 3.702,1.49 8.983,4.422 10.217,8.468 l -1.088,1.449 c -4.736,1.026 -5.063,1.919 -8.876,0.48 -1.503,-2.934 -0.622,-6.932 -0.253,-10.397 z"
         id="path113"
         style="stroke-width:1.1297" /><path
         fill="#fefefe"
         d="m 622.28381,1302.549 c 5.634,-0.57 17.956,7.41 18.07,14 -3.643,-0.71 -16.714,-10.59 -18.07,-14 z"
         id="path114"
         style="stroke-width:1.1297" /><path
         fill="url(#Gradient1)"
         d="m 581.40781,476.278 c 2.889,2.437 5.803,13.312 7.019,17.323 -3.934,0.623 -3.72,1.256 -6.601,-0.278 -1.82,-4.177 -0.621,-11.781 -0.418,-17.045 z"
         id="path115"
         style="fill:url(#Gradient1);stroke-width:1.1297" /><path
         fill="#326fa2"
         d="m 546.90881,351.289 c 1.89,1.377 1.864,2.212 1.786,4.228 -2.057,2.676 -6.369,4.164 -9.579,5.59 -1.313,-0.805 -0.719,-0.386 -1.594,-1.969 1.626,-3.179 6.254,-5.749 9.387,-7.849 z"
         id="path116"
         style="stroke-width:1.1297" /><path
         fill="#fefefe"
         d="m 627.65581,1301.309 c 6.491,0.37 12.153,5.44 15.932,10.35 -2.992,-0.48 -12.262,-7.97 -15.932,-10.35 z"
         id="path117"
         style="stroke-width:1.1297" /><path
         fill="#839fc0"
         d="m 206.87181,1135.389 c 0.384,-2.75 0.433,-4.82 1.78,-7.24 1.692,2.77 1.7,9.05 1.971,12.59 -2.265,-3.65 -0.383,-3.81 -3.751,-5.35 z"
         id="path118"
         style="stroke-width:1.1297" /><circle
         style="display:block;fill:#800000;fill-opacity:1;stroke:none;stroke-width:3.00094;stroke-linecap:round;stroke-linejoin:round;stroke-miterlimit:0.5;stroke-dasharray:none;paint-order:stroke fill markers"
         id="path119"
         cx="471.53378"
         cy="261"
         r="5"
         transform="matrix(1.0261587,0,0,1.243712,-12.313904,-109.44666)" /><circle
         style="display:block;fill:#800000;fill-opacity:1;stroke:none;stroke-width:3.00094;stroke-linecap:round;stroke-linejoin:round;stroke-miterlimit:0.5;stroke-dasharray:none;paint-order:stroke fill markers"
         id="path119-9"
         cx="534.83679"
         cy="261"
         r="5"
         transform="matrix(1.0261587,0,0,1.243712,-12.313904,-109.44666)" /></g></g></svg>
