<svg xmlns="http://www.w3.org/2000/svg" version="1.1" xmlns:xlink="http://www.w3.org/1999/xlink" width="1000" height="1000"><g clip-path="url(#SvgjsClipPath1121)"><rect width="1000" height="1000" fill="#ffffff"></rect><g transform="matrix(6.352150520558736,0,0,6.352150520558736,0,0)"><svg xmlns="http://www.w3.org/2000/svg" version="1.1" xmlns:xlink="http://www.w3.org/1999/xlink" width="157.427" height="157.427"><svg xmlns="http://www.w3.org/2000/svg" xml:space="preserve" viewBox="0 0 157.427 157.427"><g style="stroke-width:1.06568"><path d="M173.161 184.23c-7.055-.243-9.187-.02-11.445 1.197-2.357 1.269-2.77 1.953-2.737 4.546.042 3.388 1.662 9.983 2.953 12.022 1.265 1.996 5.692 4.846 8.069 5.194 3.15.461 6.884-.363 9.897-2.186 3.187-1.93 5.371-8.268 4.873-14.14-.479-5.648-1.601-6.289-11.61-6.633zm-.142 5.823c2.367.473 5.12 1.157 5.59 3.032.31 1.235-1.129 2.86-1.547 4.027-.418 1.166-1.042 2.453-2.3 3.136-1.823.989-3.173.833-5.163-1.314-1.39-1.5-3.847-3.65-3.847-5.428 0-3.067 1.153-4.676 5.578-3.79zM156.874 205.77c-2.213 2.417-.306 5.923 1.036 8.29 2.16 2.338 4.674 4.38 7.293 6.185 2.155 1.824 6.22 3.092 5.537 6.586-.879 2.883-1.194 5.191-2.479 8.356-.914 3.489.929 6.957-.515 9.916-1.939 1.914-3.591 4.205-5.169 6.426-1.278 3.465.73 6.921 1.225 10.338.796 3.698 1.104 7.474 1.59 11.218 2.543 2.852 5.204-2.489 4.408-4.903.04-4.95-2.112-9.723-1.62-14.678 1.003-3.988 5.234-5.607 8.46-7.438 4.15-2.242 9.388-6.259 9.256-11.186-.065-4.911-2.312-10.39-6.629-13.764-3.358-2.277-6.3-3.733-9.189-6.045-2.641-1.956-5.193-4.016-7.968-5.788-1.726-1.195-3.303-2.65-5.236-3.514zm19.566 21.81c3.594 1.067 4.834 6.733 3.514 9.155-.968 1.84-8.515 7.508-6.988.092-.387-2.57 1.381-6.616 3.474-9.246zM135.107 272.705c-.813-.915-.988-3.663-.997-15.592-.012-18.357-.104-18.781-4.449-20.806-3.856-1.796-6.232-3.931-6.707-6.026-1.46-6.446-1.554-7.36-.797-7.841 1.33-.846 1.702-.604 3.012 1.963.854 1.675 2.219 2.958 4.195 3.945 1.61.805 3.12 1.463 3.353 1.463.558 0 .428-11.626-.162-14.512-.276-1.352-1.036-2.53-1.914-2.968-3.857-1.922-9.342-9.52-9.342-12.938 0-1.451 1.069-3.116 2-3.116.233 0 1.125 1.365 1.983 3.034.859 1.668 1.453 2.61 2.57 3.404 1.116.794 2.226 1.382 3.44 1.929 1.552.682 1.822.622 2.172-.48.22-.691.361-3.119.315-5.394-.173-8.557.805-13.606 2.647-13.661.856-.026 2.11 4.475 2.638 6.872.69 3.13.645 4.058.645 9.595 0 3.322.177 3.906 1.183 3.906.67 0 1.882-1.133 2.795-2.612 1.757-2.125 2.092-3.604 2.956-6.273 1.314-4.06 1.328-5.09 2.333-2.497 1.487 3.84.478 11.745-4 15.654-1.413 1.234-3.914 2.839-4.698 3.1-.784.261-.897 5.67-.682 13.505.088 3.196.336 4.11 1.117 4.11 1.266 0 6.16-5.703 6.887-6.817.727-1.115 1.72-1.64 2.5-.94 1.392 1.246 1.59 2.577-2.087 7.013-.71.856-1.44 2.188-2.32 2.958-.88.771-2.587 2.384-3.792 3.585-2.494 2.486-2.315.957-2.439 20.83-.072 11.666.417 13.912-.67 15.516-1.42 2.092-2.348 1.597-3.685.09z" style="fill:#000;stroke-width:1.06568" transform="matrix(.93837 0 0 .93837 -56.902 -119.082)"></path></g><path d="M52.384 3.222c-6.061.084-6.215.09-9.246.388-10.811 1.063-17.123 2.093-22.37 3.653-6.476 1.925-10.223 4.497-12.649 8.681-.94 1.623-2.27 4.725-2.63 6.133-.89 3.487-1.753 13.317-2.12 24.146-.306 9.056-.302 9.293.395 20.222.981 15.392 1.288 22.935 1.058 26.085-.127 1.743-.046 8.704.136 11.641.901 14.557 3.212 25.063 6.929 31.513 1.244 2.16 2.22 3.278 4.624 5.309 4.602 3.887 8.684 6.185 13.799 7.768 5.472 1.693 16.701 2.908 30.634 3.312 4.912.142 15.76.01 21.571-.262 9.941-.466 17.552-1.622 24.139-3.663 1.366-.423 4.492-1.67 6.14-2.448 6.486-3.067 14.167-7.904 21.596-13.6 2.951-2.264 4.907-3.925 5.913-5.02 5.156-5.614 7.987-13.062 8.98-23.626.569-6.059.492-11.901-.34-25.713-.529-8.753-.572-10.857-.346-17.031.228-6.22.19-11.1-.105-13.367-.25-1.925-.673-4.392-1.26-7.373-.277-1.399-.584-3.009-.685-3.578-1.596-9.035-5.484-17.622-10.261-22.662-.962-1.015-2.884-2.614-4.01-3.336-3.915-2.51-9.798-4.144-18.946-5.262-7.743-.947-17.349-1.508-31.043-1.812-6.128-.137-23.145-.192-29.903-.098Zm57.18 9.913c8.27 1.038 10.458 1.403 13.21 2.207 5.833 1.702 10.21 3.36 12.682 7.82 1.658 2.99 2.617 6.175 3.606 11.979 1.114 6.532 1.6 10.82 1.843 16.212.155 3.44.085 7.038-.296 15.22-.409 8.776-.45 10.44-.296 11.685.204 1.649.517 3.39 1.38 7.674.966 4.792 1.242 6.435 1.33 7.89.083 1.393-.12 4.378-.422 6.16-1.167 6.906-4.53 15.821-7.988 21.176-1.91 2.959-5.407 3.946-8.234 6.626-.981.931-3.255 2.832-8.369 6.12-3.478 2.197-7.173 4.162-10.158 5.4-7.118 2.952-17.251 4.914-27.733 5.369a78.539 78.539 0 0 1-6.735-.005c-3.463-.168-7.854-.262-15.758-.34-9.085-.089-11.709-.168-14.544-.439-5.645-.54-9.616-1.825-13.763-4.455-2.313-1.466-5.35-3.935-7.138-5.8-5.402-5.636-8.543-10.973-9.624-22.91-.358-3.945-.426-6.917-.387-16.73.029-7.166-.006-10.986-.132-14.443-.133-3.655-.17-8.58-.158-22.162.013-17.734.096-22.296.44-24.232 1.578-8.863 5.551-15.472 9.968-18.972 1.55-1.229 4.735-2.076 10.522-2.802 4.96-.622 11.668-1.058 18.94-1.272 0 0 43.453 1.22 57.814 3.024z" style="fill:#000;stroke-width:.999996"></path></svg></svg></g></g><defs><clipPath id="SvgjsClipPath1121"><rect width="1000" height="1000" x="0" y="0" rx="100" ry="100"></rect></clipPath></defs></svg>